<svg xmlns="http://www.w3.org/2000/svg" xmlns:xlink="http://www.w3.org/1999/xlink"><defs>
        <clipPath id="a">
            <path fill="#FFF" d="M0 19.001h70v24H0z"/>
        </clipPath>
    </defs><symbol id="arrow" viewBox="0 0 92 62.003"><g fill="none">
    
    <path d="M0 1.001h91v60H0z"/>
    <path d="M40.709 51.51a28.729 28.729 0 0 0 6.806 5.068 28.64 28.64 0 0 0 7.977 2.866c2.8.56 5.621.699 8.463.418a28.62 28.62 0 0 0 8.219-2.067 28.695 28.695 0 0 0 7.268-4.375 28.8 28.8 0 0 0 5.69-6.305 28.9 28.9 0 0 0 3.624-7.694A28.96 28.96 0 0 0 90 31a28.96 28.96 0 0 0-1.244-8.419 28.9 28.9 0 0 0-3.623-7.694 28.8 28.8 0 0 0-5.691-6.305 28.696 28.696 0 0 0-7.268-4.375 28.621 28.621 0 0 0-8.22-2.067 28.6 28.6 0 0 0-8.462.418c-2.8.559-5.46 1.514-7.977 2.866a28.73 28.73 0 0 0-6.806 5.069L39.29 9.083a30.716 30.716 0 0 1 7.278-5.42A30.63 30.63 0 0 1 55.1.597a30.59 30.59 0 0 1 9.05-.446 30.61 30.61 0 0 1 8.79 2.21 30.684 30.684 0 0 1 7.772 4.678 30.788 30.788 0 0 1 6.085 6.741 30.89 30.89 0 0 1 3.873 8.224A30.948 30.948 0 0 1 92 31.002c0 3.065-.443 6.064-1.33 8.997a30.89 30.89 0 0 1-3.872 8.224 30.79 30.79 0 0 1-6.085 6.74 30.685 30.685 0 0 1-7.771 4.678 30.61 30.61 0 0 1-8.79 2.211c-3.04.3-6.056.152-9.051-.446a30.63 30.63 0 0 1-8.532-3.066 30.719 30.719 0 0 1-7.278-5.42l1.418-1.41Zm-1.39 1.41h-.028a.99.99 0 0 1 .003-1.414.99.99 0 0 1 1.415.003v.028l-1.39 1.383Zm1.39-42.454v.028a.99.99 0 0 1-1.415.003.99.99 0 0 1-.003-1.414h.029l1.389 1.383Z" fill="#1F1E1E"/>
    <g clip-path="url(#a)">
        <path d="M0 19.001h70v24H0z"/>
        <path d="M5 31.002h60M58 24.002l7 7-7 7" stroke="#1F1E1E" stroke-width="2"/>
    </g>
</g></symbol><symbol id="dc_logo" viewBox="0 0 80 35.245"><g fill="none">
    <g fill="#111" fill-rule="evenodd">
        <path d="M57.636 8.429V5.741h2.19V.001h2.82v5.74h2.124v2.721h-2.124v9.523c0 1.57.642 2.445 1.925 2.622.243.044.486.066.73.066h.464l.63 2.82h-1.194c-2.72-.022-4.39-1.04-5.01-3.052-.221-.752-.332-1.682-.332-2.788l-.033-9.224h-2.19ZM0 23.493V.266h2.887v23.227H0Zm4.546 0V20.64c2.256 0 3.771-.354 4.546-1.062.663-.62.995-1.493.995-2.621V6.803q0-1.191-.558-1.996Q8.72 3.64 6.736 3.286q-.93-.166-2.19-.166V.266q4.984 0 7.062 2.458.384.454.67.993c.486.885.73 1.914.73 3.086v10.154c0 4.158-2.534 6.337-7.6 6.536h-.862ZM15.828 3.087c0-.686.32-1.173.962-1.46q.332-.133.663-.133c.664 0 1.15.31 1.46.93q.133.331.133.663c0 .663-.31 1.15-.929 1.46a1.776 1.776 0 0 1-.664.133c-.685 0-1.183-.31-1.493-.93a1.775 1.775 0 0 1-.133-.663Zm36.499 0c0-.686.32-1.173.962-1.46.221-.089.442-.133.664-.133.663 0 1.15.31 1.46.93.088.22.132.442.132.663 0 .663-.31 1.15-.929 1.46a1.775 1.775 0 0 1-.663.133c-.686 0-1.184-.31-1.493-.93a1.775 1.775 0 0 1-.133-.663ZM21.402 29.632l.697-2.588h6.238c1.239-.044 2.146-.531 2.72-1.46.178-.31.266-.587.266-.83v-2.389c-.907.642-1.814.985-2.72 1.029v-2.555c.973 0 1.747-.41 2.322-1.228.265-.376.398-.752.398-1.128v-8.13c0-.84-.464-1.504-1.393-1.99a2.945 2.945 0 0 0-1.328-.332V5.41q.817 0 1.524.277.586.23 1.098.652a.386.386 0 0 1 .1.066V5.41h2.687v19.344c0 .951-.432 1.936-1.294 2.953-1.084 1.261-2.422 1.903-4.015 1.925h-7.3Zm.332-11.116v-8.295q0-.052.003-.103v-.002q.076-1.505 1.39-2.948c1.084-1.15 2.423-1.736 4.015-1.758v2.62c-1.084 0-1.902.465-2.455 1.394-.2.332-.299.63-.299.896v8.163c0 .664.343 1.25 1.029 1.758q.308.215.65.343.502.188 1.075.188v2.622c-2.035-.022-3.583-.885-4.645-2.588-.509-.819-.763-1.582-.763-2.29Zm14.832 4.977V10.387c0-1.062.475-2.102 1.426-3.12q.79-.804 1.748-1.248 1.174-.543 2.6-.543V8.23q-.953 0-1.653.42-.544.327-.936.907a2.112 2.112 0 0 0-.365 1.162v12.774h-2.82ZM43.799 8.23V5.476c2.057 0 3.661.83 4.812 2.488.619.863.929 1.67.929 2.423v13.106h-2.82V10.72c0-.686-.344-1.295-1.03-1.825a2.945 2.945 0 0 0-1.89-.664Zm22.929-2.688h2.953l5.043 14.036-3.418 10.22h-2.82l3.252-10.253-5.01-14.003Zm7.333 7.698 3.02-7.698H80l-4.413 11.58h-.299l-1.227-3.882ZM16.06 23.493V6.007h2.787v17.486H16.06Zm36.5 0V6.007h2.786v17.486H52.56ZM52.408 24.91l-.015 10.263h1.263V24.909h-1.248Zm10.205 2.67c-.803.426-1.205 1.08-1.205 1.96 0 .194.02.378.058.552.155.59.6 1.03 1.336 1.32.203.068.532.156.987.262.426.107.735.189.929.247.764.232 1.147.542 1.147.929 0 .3-.107.561-.32.784-.3.31-.672.464-1.117.464v1.147c.56 0 1.06-.13 1.495-.392.745-.445 1.118-1.132 1.118-2.061 0-.339-.073-.644-.218-.915-.28-.513-.75-.837-1.408-.972-1.055-.252-1.767-.455-2.134-.61-.484-.194-.726-.445-.726-.755q0-.074.011-.146.035-.226.178-.435a1.163 1.163 0 0 1 1.03-.551v-1.133c-.387 0-.774.102-1.161.305Zm1.8-.305v1.147c.145 0 .305.034.48.102q.533.196.74.571.13.238.13.547l1.147-.19c0-.435-.16-.85-.48-1.248-.512-.619-1.185-.929-2.017-.929Zm-28.51 7.157c-.398-.426-.596-.895-.596-1.408v-3.556q0-.523.348-1.06.292-.456.706-.721.575-.368 1.385-.368v1.161q-.281 0-.523.097-.12.048-.232.121-.361.252-.45.578-.03.106-.03.22v3.528c0 .136.04.271.117.407q.116.2.285.332.32.248.833.248v1.162q-.789 0-1.364-.35-.262-.16-.48-.39Zm3.148-5.752q-.26-.185-.652-.185v-1.176q.37 0 .705.108.349.113.66.342.474.364.69.844.18.401.18.884l-1.132.435v-.348a1.39 1.39 0 0 0-.116-.48q-.123-.273-.335-.424Zm2.672 4.344v-3.586l.002-.072q.03-.645.608-1.263.329-.341.729-.534.519-.25 1.158-.25v1.176c-.57 0-.968.237-1.19.711-.068.145-.102.29-.102.436v3.193q0 .172.05.326.108.332.444.589c.232.174.498.261.798.261v1.176q-.724 0-1.276-.308-.5-.279-.858-.81c-.242-.367-.363-.716-.363-1.045Zm3.121 2.163v-1.176q.382 0 .657-.171.279-.175.447-.526c.077-.154.116-.304.116-.45v-3.222q0-.274-.108-.496-.126-.26-.4-.448a1.323 1.323 0 0 0-.726-.203v-1.176q.698 0 1.23.298.485.271.831.79c.242.359.363.702.363 1.031v3.586q0 .059-.004.117-.046.65-.605 1.262-.312.337-.697.53-.492.246-1.104.254Zm9.974-2.163v-3.6c.01-.445.222-.886.638-1.321a2.518 2.518 0 0 1 1.83-.784v1.147c-.465 0-.828.203-1.09.61a.935.935 0 0 0-.16.479v.987h3.253v-.987q0-.262-.108-.468-.16-.308-.56-.49a1.438 1.438 0 0 0-.624-.146V27.32q.394 0 .755.11.555.17 1.03.601.516.493.634 1.068.03.153.034.311v2.309h-4.413v1.306c0 .271.155.523.464.755.252.174.518.261.799.261v1.133c-.88 0-1.573-.358-2.076-1.075q-.406-.566-.406-1.074Zm-6.577-3.586v3.586c0 .32.117.663.349 1.03.474.746 1.142 1.119 2.003 1.119h1.103v-1.176H50.58c-.213 0-.421-.068-.625-.203-.348-.223-.522-.49-.522-.799v-3.484c0-.145.053-.3.16-.464q.231-.33.545-.458.197-.08.427-.08h1.132v-1.175H50.55c-.61 0-1.142.217-1.597.653-.465.445-.702.929-.712 1.451Zm-9.086 5.64q-.359.115-.756.11V34.01q.143 0 .28-.027.086-.017.17-.045.343-.115.542-.35.232-.273.27-.71l.015-.03v-.29l1.133.422q0 .178-.033.35-.109.57-.577 1.072-.473.49-1.044.674Zm23.327-2.185-1.146.218c0 .387.12.76.362 1.118.465.677 1.167 1.016 2.105 1.016v-1.147a1.667 1.667 0 0 1-.638-.174c-.455-.252-.683-.595-.683-1.03Zm-4.485 2.28v-1.147c.58 0 1.016-.252 1.306-.755q.087-.16.13-.305l1.032.377c-.175.668-.572 1.171-1.19 1.51-.398.213-.823.32-1.278.32Z"/>
    </g>
</g></symbol><symbol id="logo" viewBox="0 0 202 147"><g fill="none">
    <path d="M0 0h202v147H0z"/>
    <path fill="#1F1E1E" d="M0 0h147v147H0z"/>
    <path d="M26.634 72.439h13.331V73h-18.05V49.999H26.6v.033h.033v22.407ZM43.931 73h18.117v-.561H48.618V61.285h10.494v-.594H48.618V50.56h13.43v-.561H43.933V73Zm26.767-22.44V73h-4.686V49.999H70.7c6.468 0 10.956 4.191 12.375 10.329V49.999h4.686V73h-4.686v-8.547C82.414 51.649 73.57 50.56 70.7 50.56ZM97.39 73V50.56c2.871 0 11.715 1.089 12.375 13.893V73h4.686V49.999h-4.686v10.329c-1.419-6.138-5.907-10.329-12.375-10.329h-4.686V73h4.686Zm26.69 0h-4.686V49.999h4.686V73Z" fill="#FFF" fill-rule="evenodd"/>
    <path fill="#BC3324" d="M81 92h121v42H81z"/>
    <path d="M132.644 103.09V124h4.26v-7.23h5.07l4.89 7.2h4.86l-5.16-7.65c3-.78 5.28-2.64 5.28-6.81 0-5.22-3.81-6.87-8.25-6.87-4.68 0-6.03 3.51-6.69 7.41v-6.96h-4.26ZM109.462 124h-.54l7.2-20.91h4.53l8.1 20.91h-4.47l-3.33-8.55h-8.55l-2.94 8.55Zm52.652 0-.03-20.4h-8.61v-.51h21.51v.51h-8.61V124h-4.26Zm-24.04-16.53c.81-2.94 2.91-4.14 4.77-4.29 4.47-.42 4.65 2.43 4.65 6.33 0 6.33-3.36 6.75-6.24 6.75h-4.35s-.12-4.14 1.17-8.79Zm-17.302 7.47-4.35-11.19-3.84 11.19h8.19Z" fill="#FFF" fill-rule="evenodd"/>
</g></symbol><symbol id="vk"><g fill="none">
    <path fill="none" d="M0 0h24v24H0z"/>
    <path d="M5.71 2A3.725 3.725 0 0 0 2 5.71v12.58A3.726 3.726 0 0 0 5.71 22h12.58A3.725 3.725 0 0 0 22 18.29V5.71A3.725 3.725 0 0 0 18.29 2H5.71Zm0 1.818h12.58c1.054 0 1.892.838 1.892 1.893v12.578a1.881 1.881 0 0 1-1.893 1.893H5.711a1.88 1.88 0 0 1-1.893-1.893V5.711c0-1.055.838-1.893 1.893-1.893Z" fill="#FFF"/>
    <path d="M17.725 9.406c.083-.234 0-.406-.398-.406h-1.312c-.334 0-.488.149-.572.313 0 0-.667 1.37-1.613 2.26-.306.257-.445.34-.612.34-.083 0-.209-.083-.209-.317v-2.19c0-.28-.092-.406-.37-.406h-2.064c-.208 0-.334.13-.334.254 0 .266.473.328.522 1.077v1.628c0 .357-.077.422-.244.422-.445 0-1.527-1.377-2.17-2.951C8.225 9.123 8.1 9 7.763 9H6.45c-.375 0-.45.149-.45.313 0 .292.445 1.744 2.072 3.665C9.157 14.289 10.685 15 12.076 15c.835 0 .938-.158.938-.43v-.991c0-.316.079-.379.343-.379.195 0 .529.082 1.308.714.89.75 1.036 1.086 1.537 1.086h1.313c.375 0 .563-.158.455-.47-.12-.31-.544-.76-1.108-1.295-.306-.304-.765-.632-.904-.796-.195-.21-.14-.304 0-.492 0 0 1.6-1.897 1.766-2.54Z" fill="#FFF" fill-rule="evenodd"/>
</g></symbol><symbol id="x" viewBox="0 0 24 24"><g fill="none">
    <path d="M18 6 6 18M6 6l12 12" stroke="#FFF" stroke-linecap="round" stroke-linejoin="round" stroke-width="2"/>
</g></symbol></svg>